<?xml version="1.0" standalone="no"?>
<!DOCTYPE svg PUBLIC "-//W3C//DTD SVG 20010904//EN"
 "http://www.w3.org/TR/2001/REC-SVG-20010904/DTD/svg10.dtd">
<svg version="1.0" xmlns="http://www.w3.org/2000/svg"
 width="283.000000pt" height="283.000000pt" viewBox="0 0 283.000000 283.000000"
 preserveAspectRatio="xMidYMid meet">

<g transform="translate(0.000000,283.000000) scale(0.100000,-0.100000)"
fill="#000000" stroke="none">
<path d="M2255 2311 c-16 -10 -48 -38 -70 -61 -43 -46 -143 -128 -215 -177
-69 -47 -168 -85 -240 -94 l-65 -7 71 1 c49 2 71 -2 71 -10 0 -7 -4 -10 -8 -7
-4 2 -10 1 -13 -4 -2 -4 10 -9 29 -10 76 -5 207 69 351 201 88 79 119 90 153
51 22 -27 23 -33 18 -124 -6 -94 -43 -240 -62 -247 -6 -2 -9 17 -7 45 5 67 -9
116 -34 120 -19 3 -80 -26 -214 -101 -70 -39 -176 -77 -217 -77 -14 0 -32 -8
-40 -17 -8 -10 -11 -12 -7 -4 4 9 3 12 -4 7 -8 -4 -8 -15 -2 -31 6 -16 6 -27
-2 -31 -6 -4 -8 -3 -4 4 3 6 2 13 -2 16 -10 6 -10 -33 -1 -49 7 -12 -15 -57
-24 -49 -3 3 -4 -2 -2 -13 2 -10 4 -18 5 -18 8 0 6 -36 -2 -42 -7 -4 -8 -1 -3
7 6 9 4 11 -4 6 -7 -5 -10 -11 -7 -14 3 -3 1 -11 -5 -18 -6 -8 -6 -14 0 -18 6
-4 3 -19 -7 -39 -17 -34 -24 -80 -11 -72 9 6 6 -15 -4 -33 -5 -7 -12 -10 -17
-7 -4 3 -7 -3 -5 -12 2 -10 4 -18 5 -18 8 0 6 -36 -2 -42 -7 -4 -8 -1 -3 7 5
8 4 11 -3 6 -6 -4 -9 -13 -5 -21 3 -8 1 -15 -4 -15 -6 0 -9 -12 -8 -27 0 -16
-4 -38 -10 -50 -6 -12 -11 -36 -11 -55 1 -31 3 -33 46 -39 71 -11 133 -30 124
-38 -5 -5 -31 -14 -59 -20 -88 -20 -153 -51 -150 -69 1 -9 -2 -23 -8 -29 -5
-7 -6 -13 -1 -13 4 0 -3 -12 -17 -27 l-24 -28 25 22 c31 27 124 71 168 79 58
11 58 -10 2 -45 -62 -38 -150 -124 -150 -146 0 -28 116 -58 296 -76 183 -19
468 9 583 57 54 22 91 63 91 98 0 41 -62 98 -173 159 -159 88 -276 194 -330
302 -29 59 -51 189 -42 246 8 45 22 51 30 12 25 -122 78 -233 109 -233 23 0
106 151 168 305 99 247 138 537 82 612 -27 36 -85 42 -129 14z m-312 -688 c-9
-38 -15 -109 -15 -160 -1 -85 2 -97 36 -169 47 -98 135 -186 270 -269 98 -60
146 -103 146 -131 0 -26 -50 -62 -103 -75 -29 -6 -104 -13 -167 -15 -126 -5
-126 -5 -7 45 71 30 65 46 -59 170 -118 118 -153 163 -185 242 -31 75 -31 201
-1 280 24 59 79 149 92 149 4 0 1 -30 -7 -67z"/>
<path d="M1420 2079 c0 -5 5 -7 10 -4 6 3 10 8 10 11 0 2 -4 4 -10 4 -5 0 -10
-5 -10 -11z"/>
</g>
</svg>
